<svg width="110" height="40" viewBox="0 0 110 40" fill="none" xmlns="http://www.w3.org/2000/svg">
<path d="M60.0877 26.3945H63.4377V26.4607C63.4729 28.3035 62.9058 29.7566 61.7362 30.82C60.5667 31.8834 58.9397 32.417 56.8553 32.4209C54.763 32.4209 53.0685 31.7682 51.7716 30.463C50.4747 29.1577 49.8184 27.456 49.8027 25.358V21.9834C49.8027 19.9103 50.4384 18.2154 51.7099 16.8986C52.9813 15.5818 54.6631 14.9244 56.7554 14.9263C58.8476 14.9263 60.4981 15.4628 61.7069 16.5358C62.9156 17.6088 63.5033 19.0792 63.47 20.9469L63.4435 21.0246H60.0877C60.0877 18.7077 58.9583 17.5493 56.6995 17.5493C56.2166 17.5357 55.7379 17.6405 55.3069 17.8542C54.8758 18.0679 54.506 18.3837 54.2312 18.773C53.618 19.5907 53.3104 20.6522 53.3084 21.9575V25.358C53.3084 26.6786 53.6307 27.7487 54.2752 28.5684C54.5771 28.9637 54.972 29.2817 55.4264 29.4953C55.8807 29.7089 56.381 29.8117 56.8847 29.795C57.9778 29.795 58.785 29.5138 59.3061 28.9513C59.8144 28.3899 60.0877 27.5261 60.0877 26.3945Z" fill="white"/>
<path d="M76.4263 32.1329L75.2508 28.4618H69.1563L67.9808 32.1329H64.4692L70.4404 15.145H74.0019L79.9467 32.1329H76.4263ZM72.1742 19.1184L70.0172 25.7984H74.3987L72.2535 19.1184H72.1742Z" fill="white"/>
<path d="M88.4742 25.9798H85.0449V32.1329H81.5627V15.145H88.4742C90.4607 15.145 92.0279 15.6355 93.1759 16.6163C94.3239 17.5972 94.8989 18.9121 94.9009 20.561C94.9009 22.2079 94.3279 23.5228 93.1818 24.5056C92.0358 25.4884 90.4666 25.9798 88.4742 25.9798ZM85.0449 17.7681V23.3453H88.4742C89.4263 23.3453 90.159 23.0948 90.6723 22.5938C90.9329 22.3263 91.1353 22.0097 91.2672 21.6632C91.399 21.3168 91.4576 20.9476 91.4393 20.5783C91.4564 20.2055 91.3974 19.8332 91.2657 19.4832C91.134 19.1331 90.9322 18.8123 90.6723 18.5397C90.158 18.0272 89.4263 17.7681 88.4742 17.7681H85.0449Z" fill="white"/>
<path d="M103.285 25.9798H99.8613V32.1329H96.3792V15.145H103.285C105.271 15.145 106.838 15.6355 107.986 16.6163C109.134 17.5972 109.71 18.9121 109.714 20.561C109.714 22.2079 109.14 23.5228 107.992 24.5056C106.844 25.4884 105.275 25.9798 103.285 25.9798ZM99.8555 17.7681V23.3453H103.285C104.237 23.3453 104.972 23.0948 105.483 22.5938C105.743 22.3263 105.946 22.0097 106.078 21.6632C106.21 21.3168 106.268 20.9476 106.25 20.5783C106.267 20.2055 106.208 19.8332 106.076 19.4832C105.944 19.1331 105.743 18.8123 105.483 18.5397C104.972 18.0272 104.237 17.7681 103.285 17.7681H99.8555Z" fill="white"/>
<path d="M26.5058 2.68063C26.5075 2.76991 26.4773 2.85696 26.4204 2.92673C26.3636 2.9965 26.2836 3.04459 26.1943 3.0627C26.1051 3.0808 26.0122 3.06777 25.9317 3.02586C25.8512 2.98396 25.7882 2.91582 25.7536 2.83322C25.7536 2.83322 25.7536 2.8073 25.7536 2.79579L25.0013 0.765886H24.0522L23.2969 2.79579C23.2981 2.80824 23.2981 2.82077 23.2969 2.83322C23.2612 2.91399 23.198 2.98022 23.1183 3.02073C23.0385 3.06125 22.9469 3.07359 22.8589 3.05567C22.7709 3.03775 22.6919 2.99067 22.6352 2.92235C22.5785 2.85404 22.5476 2.76868 22.5476 2.68063C22.5483 2.63034 22.5582 2.58059 22.577 2.53378L23.2323 0.765886L23.4174 0.267773V0.233223C23.447 0.164015 23.4968 0.104928 23.5606 0.0634247C23.6244 0.0219211 23.6993 -0.000141518 23.7759 6.8309e-07H25.2746C25.3515 4.18247e-05 25.4267 0.0221369 25.4909 0.0635828C25.5552 0.105029 25.6056 0.16401 25.636 0.233223C25.636 0.233223 25.636 0.256256 25.636 0.267773L25.8212 0.765886L26.4765 2.53378C26.4765 2.53378 26.4765 2.55681 26.4765 2.56833C26.4866 2.60499 26.4925 2.64267 26.4941 2.68063" fill="white"/>
<path d="M30.1937 10.3682C30.1947 10.4572 30.164 10.5438 30.1069 10.613C30.0497 10.6823 29.9698 10.7298 29.8807 10.7476C29.7917 10.7653 29.6991 10.7521 29.6189 10.7102C29.5388 10.6682 29.476 10.6003 29.4415 10.5179L27.6196 5.62311L27.2434 4.60673H21.7806L21.3722 5.70374L19.5885 10.5035C19.5589 10.5727 19.509 10.6318 19.4452 10.6733C19.3814 10.7148 19.3065 10.7369 19.23 10.7367C19.1784 10.7371 19.1272 10.7275 19.0795 10.7084C19.0317 10.6894 18.9883 10.6612 18.9517 10.6256C18.9151 10.59 18.886 10.5477 18.8662 10.501C18.8464 10.4544 18.8362 10.4043 18.8362 10.3538C18.8375 10.3158 18.8434 10.2781 18.8538 10.2415L18.8685 10.2041L20.949 4.60673L21.1459 4.07405C21.176 4.00461 21.2264 3.94544 21.2907 3.90395C21.355 3.86246 21.4304 3.84049 21.5073 3.84082H27.5167C27.591 3.84071 27.6638 3.8612 27.7267 3.89992C27.7897 3.93865 27.8401 3.99402 27.8723 4.05965L27.8958 4.12299L28.075 4.60673L30.1643 10.2271C30.1631 10.2395 30.1631 10.2521 30.1643 10.2645C30.1759 10.3009 30.1819 10.3387 30.182 10.3768" fill="white"/>
<path d="M24.5106 18.3931L20.3055 17.2903L24.6605 15.2979C24.6744 15.2951 24.6875 15.2892 24.6987 15.2806C24.7608 15.2486 24.8128 15.2005 24.849 15.1417C24.8853 15.0828 24.9044 15.0153 24.9044 14.9466C24.9044 14.845 24.8632 14.7476 24.7899 14.6758C24.7166 14.604 24.6172 14.5636 24.5135 14.5636C24.4611 14.5626 24.409 14.5724 24.3607 14.5924L24.3255 14.6097L20.1909 16.4957L19.4063 16.8527L19.1301 16.9794L9.96765 14.5694L24.5135 10.7514L39.0536 14.5694L24.5106 18.3931ZM33.4879 22.9366L24.5135 25.2919L20.1909 24.1575V18.0533L23.0002 18.7904L24.396 19.1561H24.4342H24.5135H24.59H24.6282L26.021 18.7904L33.485 16.8296L33.4879 22.9366ZM19.4063 23.953L15.4951 22.9194V16.8152L18.0281 17.4804L19.2036 17.7885L19.4063 17.8403V23.953ZM40.6933 14.2095H40.6551L40.5757 14.1864L26.0328 10.3685L24.637 10.0028C24.6244 9.9999 24.6113 9.9999 24.5988 10.0028C24.5734 9.99985 24.5477 9.99985 24.5224 10.0028C24.496 9.9997 24.4694 9.9997 24.443 10.0028C24.4305 9.9999 24.4174 9.9999 24.4048 10.0028L23.0119 10.3685L8.46605 14.1864L8.3867 14.2095C8.37304 14.2079 8.35922 14.2079 8.34556 14.2095C8.26594 14.2337 8.19634 14.2823 8.1469 14.3481C8.09747 14.4139 8.0708 14.4935 8.0708 14.5752C8.0708 14.6569 8.09747 14.7364 8.1469 14.8022C8.19634 14.868 8.26594 14.9166 8.34556 14.9408H8.37495L8.46016 14.9639L14.7222 16.6079V23.2073V23.2476C14.726 23.3258 14.7542 23.4009 14.8031 23.4627C14.852 23.5245 14.9192 23.5701 14.9955 23.5931L15.5039 23.7284L19.4151 24.7535V25.6835C19.4236 25.7797 19.4687 25.8693 19.5413 25.9345C19.6139 25.9998 19.7089 26.036 19.8074 26.036C19.906 26.036 20.0009 25.9998 20.0736 25.9345C20.1462 25.8693 20.1912 25.7797 20.1997 25.6835V24.9608L23.009 25.6979L24.4048 26.0635H24.4342C24.4634 26.0679 24.4931 26.0679 24.5224 26.0635C24.5516 26.0679 24.5813 26.0679 24.6105 26.0635H24.637L26.0298 25.6979L33.4938 23.7371L33.9581 23.6161H34.0022C34.0815 23.5916 34.1508 23.543 34.2 23.4772C34.2491 23.4114 34.2756 23.332 34.2755 23.2505V16.6252L40.5728 14.9725L40.661 14.9495H40.6903C40.77 14.9252 40.8396 14.8766 40.889 14.8108C40.9385 14.7451 40.9651 14.6655 40.9651 14.5838C40.9651 14.5021 40.9385 14.4225 40.889 14.3568C40.8396 14.291 40.77 14.2424 40.6903 14.2181" fill="white"/>
<path d="M33.6408 31.0792C33.6414 31.1683 33.6102 31.2549 33.5526 31.3239C33.5416 31.3361 33.5299 31.3477 33.5174 31.3584L25.0661 39.6192L24.8045 39.8725L24.7634 39.9128C24.6939 39.969 24.6066 39.9996 24.5165 39.9992C24.4148 40.0057 24.3145 39.9726 24.2374 39.9071L23.9435 39.6364L15.5098 31.3498C15.4734 31.3144 15.4445 31.2722 15.4248 31.2257C15.4052 31.1793 15.3951 31.1295 15.3952 31.0792C15.3923 31.0504 15.3923 31.0215 15.3952 30.9928V30.9669L15.5657 30.3392L17.082 24.7937C17.1098 24.7061 17.1687 24.6312 17.2481 24.5826C17.3275 24.534 17.4221 24.5149 17.5146 24.5289C17.6071 24.5428 17.6915 24.5888 17.7523 24.6586C17.8131 24.7283 17.8464 24.8171 17.846 24.9088C17.8489 24.9375 17.8489 24.9665 17.846 24.9952V25.0211L16.221 30.9813L20.2409 34.9173L21.6338 27.1835C21.635 27.171 21.635 27.1585 21.6338 27.146C21.6506 27.0504 21.7038 26.9646 21.7827 26.9059C21.8616 26.8473 21.9602 26.8201 22.0587 26.83C22.1573 26.8399 22.2483 26.886 22.3134 26.9591C22.3785 27.0322 22.4129 27.1268 22.4096 27.2238C22.4127 27.2486 22.4127 27.2738 22.4096 27.2986L20.9197 35.5795L24.5136 39.1009L28.0722 35.5881L26.5882 27.2842V27.2468V27.2094C26.589 27.1151 26.6252 27.0244 26.69 26.9547C26.7547 26.885 26.8434 26.8411 26.9391 26.8315C27.0348 26.8219 27.1308 26.8472 27.2086 26.9026C27.2865 26.9579 27.3408 27.0395 27.3611 27.1316C27.3627 27.1441 27.3627 27.1566 27.3611 27.1691L28.7598 34.9432L32.8151 30.9697L31.193 25.0326V25.001C31.1899 24.9742 31.1899 24.9471 31.193 24.9203C31.1934 24.8297 31.2266 24.7421 31.2867 24.6732C31.3468 24.6043 31.4299 24.5585 31.5212 24.544C31.6126 24.5295 31.7062 24.5472 31.7854 24.5939C31.8647 24.6407 31.9244 24.7135 31.9541 24.7994V24.834L33.4615 30.3449L33.632 30.9726V30.9985C33.6349 31.0273 33.6349 31.0562 33.632 31.0849" fill="white"/>
<path d="M13.8994 25.7036C13.8994 25.8052 13.8583 25.9026 13.785 25.9744C13.7117 26.0462 13.6123 26.0866 13.5086 26.0866C13.4311 26.0858 13.3555 26.0628 13.2911 26.0203L9.15952 23.1871L8.32496 22.6112L5.28062 20.5209L4.44313 19.945L0.308569 17.1089L0.167523 17.0139C0.115332 16.9792 0.0727081 16.9324 0.0434809 16.8776C0.0142538 16.8228 -0.000668887 16.7619 2.30082e-05 16.7001C0.000282756 16.6186 0.0272663 16.5393 0.0770025 16.474C0.126739 16.4087 0.196594 16.3607 0.276249 16.3373H0.31151L0.467245 16.297L6.39727 14.7393H6.43841H6.51188C6.60549 14.7389 6.69611 14.7715 6.76728 14.8311C6.83844 14.8907 6.88541 14.9733 6.89964 15.064C6.91388 15.1546 6.89444 15.2473 6.84485 15.3251C6.79526 15.4029 6.71881 15.4606 6.62943 15.4879H6.59122L1.30181 16.8757L5.43049 19.6888L10.2997 18.4104H10.3379H10.4172C10.4688 18.4104 10.5199 18.4204 10.5675 18.4398C10.6151 18.4592 10.6583 18.4877 10.6946 18.5235C10.731 18.5594 10.7597 18.602 10.7792 18.6488C10.7986 18.6955 10.8084 18.7456 10.8081 18.7962C10.8085 18.8774 10.7821 18.9566 10.7328 19.022C10.6836 19.0874 10.6141 19.1354 10.5348 19.159L6.26797 20.2819L9.30645 22.3435L12.6417 21.4797H12.6711C12.7003 21.4753 12.73 21.4753 12.7593 21.4797C12.8526 21.48 12.9428 21.5131 13.0134 21.5729C13.084 21.6327 13.1305 21.7154 13.1443 21.8058C13.1582 21.8963 13.1385 21.9886 13.0889 22.0661C13.0393 22.1436 12.963 22.2011 12.8739 22.2283L10.1322 22.9193L13.7026 25.3696H13.7202C13.7709 25.4047 13.8121 25.4513 13.8402 25.5055C13.8684 25.5597 13.8827 25.6198 13.8818 25.6806" fill="white"/>
<path d="M49.033 16.6944C49.0321 16.7495 49.0189 16.8038 48.9946 16.8534C48.9703 16.9031 48.9353 16.9471 48.892 16.9823L48.8626 17.0054L48.7186 17.1032L44.584 19.9394L43.7466 20.5152L40.6934 22.6113L39.8588 23.1872L35.7272 26.0204C35.662 26.0607 35.5868 26.0826 35.5097 26.0838C35.4061 26.0838 35.3067 26.0434 35.2334 25.9716C35.1601 25.8998 35.1189 25.8024 35.1189 25.7008C35.1181 25.64 35.1323 25.5799 35.1605 25.5258C35.1887 25.4716 35.2299 25.4249 35.2806 25.3899H35.2982L38.8774 22.9194L36.1474 22.2025C36.0583 22.1753 35.982 22.1178 35.9324 22.0403C35.8828 21.9628 35.8631 21.8705 35.877 21.78C35.8908 21.6895 35.9373 21.6069 36.0079 21.5471C36.0785 21.4873 36.1687 21.4542 36.262 21.4539C36.2912 21.4495 36.321 21.4495 36.3502 21.4539H36.3796L39.7148 22.3176L42.7504 20.2647L38.4836 19.1418C38.4042 19.1182 38.3348 19.0702 38.2855 19.0048C38.2363 18.9395 38.2099 18.8602 38.2103 18.779C38.2099 18.7285 38.2197 18.6784 38.2392 18.6316C38.2587 18.5848 38.2874 18.5422 38.3237 18.5064C38.36 18.4705 38.4033 18.442 38.4509 18.4226C38.4985 18.4032 38.5496 18.3932 38.6011 18.3932H38.6805H38.7157L43.5879 19.6716L47.7459 16.8527L42.4565 15.4649H42.4183C42.3289 15.4377 42.2525 15.3799 42.2029 15.3021C42.1533 15.2243 42.1339 15.1317 42.1481 15.041C42.1623 14.9504 42.2093 14.8677 42.2805 14.8081C42.3516 14.7485 42.4423 14.716 42.5359 14.7163H42.6152H42.6505L48.5805 16.274L48.7362 16.3143H48.7715C48.8514 16.3383 48.9213 16.3868 48.971 16.4526C49.0207 16.5184 49.0476 16.5981 49.0477 16.68" fill="white"/>
</svg>
