<svg width="52" height="52" viewBox="0 0 52 52" fill="none" xmlns="http://www.w3.org/2000/svg">
<path d="M25.9999 39.0002C32.3748 34.902 36.874 34.4212 44.4644 34.3648C45.5943 34.3564 46.1592 34.3522 46.5838 34.1331C46.9591 33.9394 47.2597 33.6366 47.4506 33.2598C47.6666 32.8336 47.6666 32.2748 47.6666 31.1573V4.3335C38.037 4.3335 33.2221 4.33349 25.9999 8.97635M25.9999 39.0002C19.625 34.902 15.1258 34.4212 7.53541 34.3648C6.40554 34.3564 5.8406 34.3522 5.41601 34.1331C5.04069 33.9394 4.74013 33.6366 4.54922 33.2598C4.33325 32.8336 4.33325 32.2748 4.33325 31.1573V4.3335C13.9629 4.3335 18.7777 4.33349 25.9999 8.97635M25.9999 39.0002V8.97635M45.4999 42.2502C36.8333 42.2502 32.4999 43.3335 25.9999 47.6668C19.4999 43.3335 15.1666 42.2502 6.49992 42.2502" stroke="#B3133F" stroke-width="4" stroke-linecap="round" stroke-linejoin="round"/>
</svg>
