<svg width="52" height="52" viewBox="0 0 52 52" fill="none" xmlns="http://www.w3.org/2000/svg">
<path d="M6.5 4.3335H45.5M6.5 4.3335V28.2668C6.5 30.507 6.5 31.6271 6.93597 32.4828C7.31947 33.2354 7.93139 33.8474 8.68404 34.2309C9.53969 34.6668 10.6598 34.6668 12.9 34.6668H39.1C41.3402 34.6668 42.4603 34.6668 43.316 34.2309C44.0686 33.8474 44.6805 33.2354 45.064 32.4828C45.5 31.6271 45.5 30.507 45.5 28.2668V4.3335M6.5 4.3335H3.25M45.5 4.3335H48.75M17.3333 19.5002V23.8335M26 15.1668V23.8335M34.6667 17.3335V23.8335M26 34.6668V41.1668M26 41.1668L15.1667 47.6668M26 41.1668L36.8333 47.6668M26 41.1668V47.6668" stroke="#B3133F" stroke-width="4" stroke-linecap="round" stroke-linejoin="round"/>
</svg>
